{"title":"The Odd _Couple_S01-05_XVID_AND_M4V_MIXED","uid":8044578,"size":44060930803,"categoryP":"video","categoryS":"tv_shows","magnet":"?xt=urn:btih:2545e89d068f2f95601a58846a6cec3c1a22105e&amp;dn=The+Odd+_Couple_S01-05_XVID_AND_M4V_MIXED&amp;tr=udp%3A%2F%2Ftracker.openbittorrent.com%3A80&amp;tr=udp%3A%2F%2Fopen.demonii.com%3A1337&amp;tr=udp%3A%2F%2Ftracker.coppersurfer.tk%3A6969&amp;tr=udp%3A%2F%2Fexodus.desync.com%3A6969","seeders":1,"leechers":9,"uploader":"thetorrentlord","files":-1,"time":1358718011,"description":"I have gathered these from all over the web and put them together in one torrent to replace the upload that is out there that does not have a seeder. The files are XVID and M4V so they are not all the same as the torrent with no seeder. I have only checked a few and the ones I checked were all DVD rips, not from a tv source. Quality seems quite good. Get one and see for yourself. I will be able to seed this for quite a while (8-10 months), but just not at great speeds.So be patient and please share.                                          \t\t\t\t\t\t\t\t\t\t\t\t\t\t\t\tAs always, enjoy.\t\t\t\t\t\t\t\t\t\t\t\t\t\t\t\t\t\t\t\t\t\tTTLTTLTTLTTLTTLTTLTTLTTLTTLTTLTTLTTLTTLTTLTTLTTL\t\t\t\t\t\t\t\t\t\t\t\t\t\t\t\t\t\t\t\t\t\t\t\t\t\tThe Odd Couple-S1E01.avi\nFormat                           : AVI\nFormat/Info                      : Audio Video Interleave\nFile size                        : 231 MiB\nDuration                         : 25mn 42s\nOverall bit rate                 : 1 256 Kbps\nWriting application              : VirtualDubMod 1.5.10.2 (build 2540/release)\nWriting library                  : VirtualDubMod build 2540/release\n\nVideo\nID                               : 0\nFormat                           : MPEG-4 Visual\nFormat profile                   : Advanced Simple@L5\nFormat settings, BVOP            : Yes\nFormat settings, QPel            : No\nFormat settings, GMC             : No warppoints\nFormat settings, Matrix          : Default (H.263)\nMuxing mode                      : Packed bitstream\nCodec ID                         : XVID\nCodec ID/Hint                    : XviD\nDuration                         : 25mn 42s\nBit rate                         : 1 116 Kbps\nWidth                            : 640 pixels\nHeight                           : 464 pixels\nDisplay aspect ratio             : 1.379\nFrame rate                       : 29.970 fps\nResolution                       : 8 bits\nColorimetry                      : 4:2:0\nScan type                        : Progressive\nBits/(Pixel*Frame)               : 0.125\nStream size                      : 205 MiB (89%)\nWriting library                  : XviD 1.2.1 (UTC 2008-12-04)\n\nAudio                            : English\nID                               : 1\nFormat                           : MPEG Audio\nFormat version                   : Version 1\nFormat profile                   : Layer 3\nMode                             : Joint stereo\nFormat_Settings_ModeExtension    : MS Stereo\nCodec ID                         : 55\nCodec ID/Hint                    : MP3\nDuration                         : 25mn 42s\nBit rate mode                    : Constant\nBit rate                         : 128 Kbps\nChannel(s)                       : 2 channels\nSampling rate                    : 48.0 KHz\nStream size                      : 23.5 MiB (10%)\nAlignment                        : Aligned on interleaves\nInterleave, duration             : 33 ms (1.00 video frame)\nInterleave, preload duration     : 504 ms\n\n\t\t\t\t\t\n","torrent":{"xt":"urn:btih:2545e89d068f2f95601a58846a6cec3c1a22105e","amp;dn":"The+Odd+_Couple_S01-05_XVID_AND_M4V_MIXED","amp;tr":["udp%3A%2F%2Ftracker.openbittorrent.com%3A80","udp%3A%2F%2Fopen.demonii.com%3A1337","udp%3A%2F%2Ftracker.coppersurfer.tk%3A6969","udp%3A%2F%2Fexodus.desync.com%3A6969"],"infoHash":"2545e89d068f2f95601a58846a6cec3c1a22105e","infoHashBuffer":{"type":"Buffer","data":[37,69,232,157,6,143,47,149,96,26,88,132,106,108,236,60,26,34,16,94]},"announce":[],"urlList":[]}}